<mxfile host="Electron" modified="2024-02-08T18:48:21.433Z" agent="Mozilla/5.0 (Windows NT 10.0; Win64; x64) AppleWebKit/537.36 (KHTML, like Gecko) draw.io/22.1.18 Chrome/120.0.6099.199 Electron/28.1.2 Safari/537.36" etag="0VNznNX0Y6j0i2w9ChBV" version="22.1.18" type="device">
  <diagram id="egmruBk8gdw-XoZp5A7p" name="Page-1">
    <mxGraphModel dx="1104" dy="719" grid="0" gridSize="10" guides="1" tooltips="1" connect="1" arrows="1" fold="1" page="1" pageScale="1" pageWidth="1600" pageHeight="1200" math="0" shadow="0">
      <root>
        <mxCell id="0" />
        <mxCell id="1" parent="0" />
        <mxCell id="ecGzhi-yVDiqqjICK5mq-1" value="" style="ellipse;html=1;shape=startState;fillColor=#000000;strokeColor=#ff0000;" parent="1" vertex="1">
          <mxGeometry x="838" y="60" width="45" height="40" as="geometry" />
        </mxCell>
        <mxCell id="ecGzhi-yVDiqqjICK5mq-2" value="" style="edgeStyle=orthogonalEdgeStyle;html=1;verticalAlign=bottom;endArrow=open;endSize=8;strokeColor=#000000;exitX=0.5;exitY=1;exitDx=0;exitDy=0;" parent="1" source="ecGzhi-yVDiqqjICK5mq-1" edge="1">
          <mxGeometry relative="1" as="geometry">
            <mxPoint x="860" y="160" as="targetPoint" />
            <mxPoint x="860.5" y="100" as="sourcePoint" />
          </mxGeometry>
        </mxCell>
        <mxCell id="l-sn4YQcxQSM0G9tXCvt-2" value="" style="edgeStyle=orthogonalEdgeStyle;rounded=0;orthogonalLoop=1;jettySize=auto;html=1;" edge="1" parent="1" source="ecGzhi-yVDiqqjICK5mq-3" target="ecGzhi-yVDiqqjICK5mq-7">
          <mxGeometry relative="1" as="geometry" />
        </mxCell>
        <mxCell id="ecGzhi-yVDiqqjICK5mq-3" value="&lt;b&gt;&lt;font style=&quot;font-size: 14px&quot;&gt;Sign in successfully&amp;nbsp;&lt;/font&gt;&lt;/b&gt;" style="rounded=1;whiteSpace=wrap;html=1;arcSize=40;fillColor=#cce5ff;strokeColor=#36393d;" parent="1" vertex="1">
          <mxGeometry x="800" y="160" width="120" height="40" as="geometry" />
        </mxCell>
        <mxCell id="l-sn4YQcxQSM0G9tXCvt-12" value="" style="edgeStyle=orthogonalEdgeStyle;rounded=0;orthogonalLoop=1;jettySize=auto;html=1;" edge="1" parent="1" source="ecGzhi-yVDiqqjICK5mq-7">
          <mxGeometry relative="1" as="geometry">
            <mxPoint x="858" y="357" as="targetPoint" />
            <Array as="points">
              <mxPoint x="860" y="330" />
              <mxPoint x="858" y="330" />
            </Array>
          </mxGeometry>
        </mxCell>
        <mxCell id="ecGzhi-yVDiqqjICK5mq-7" value="&lt;b&gt;Access User information&amp;nbsp;&lt;/b&gt;" style="rounded=1;whiteSpace=wrap;html=1;arcSize=40;fillColor=#cce5ff;strokeColor=#36393d;" parent="1" vertex="1">
          <mxGeometry x="800" y="247" width="120" height="40" as="geometry" />
        </mxCell>
        <mxCell id="l-sn4YQcxQSM0G9tXCvt-9" style="edgeStyle=orthogonalEdgeStyle;rounded=0;orthogonalLoop=1;jettySize=auto;html=1;exitX=0.982;exitY=0.918;exitDx=0;exitDy=0;exitPerimeter=0;" edge="1" parent="1" source="ecGzhi-yVDiqqjICK5mq-11" target="ecGzhi-yVDiqqjICK5mq-20">
          <mxGeometry relative="1" as="geometry">
            <mxPoint x="1042" y="370" as="sourcePoint" />
          </mxGeometry>
        </mxCell>
        <mxCell id="l-sn4YQcxQSM0G9tXCvt-11" style="edgeStyle=orthogonalEdgeStyle;rounded=0;orthogonalLoop=1;jettySize=auto;html=1;exitX=0;exitY=0.5;exitDx=0;exitDy=0;exitPerimeter=0;" edge="1" parent="1" source="ecGzhi-yVDiqqjICK5mq-11" target="ecGzhi-yVDiqqjICK5mq-13">
          <mxGeometry relative="1" as="geometry">
            <Array as="points">
              <mxPoint x="670" y="358" />
            </Array>
          </mxGeometry>
        </mxCell>
        <mxCell id="ecGzhi-yVDiqqjICK5mq-11" value="" style="shape=line;html=1;strokeWidth=6;strokeColor=#000000;" parent="1" vertex="1">
          <mxGeometry x="668" y="354" width="383" height="9" as="geometry" />
        </mxCell>
        <mxCell id="ecGzhi-yVDiqqjICK5mq-13" value="&lt;b&gt;Manage Registration Information&amp;nbsp;&lt;/b&gt;" style="rounded=1;whiteSpace=wrap;html=1;arcSize=40;fillColor=#cce5ff;strokeColor=#36393d;" parent="1" vertex="1">
          <mxGeometry x="605" y="422" width="130" height="40" as="geometry" />
        </mxCell>
        <mxCell id="l-sn4YQcxQSM0G9tXCvt-13" style="edgeStyle=orthogonalEdgeStyle;rounded=0;orthogonalLoop=1;jettySize=auto;html=1;" edge="1" parent="1" source="ecGzhi-yVDiqqjICK5mq-16" target="ecGzhi-yVDiqqjICK5mq-25">
          <mxGeometry relative="1" as="geometry" />
        </mxCell>
        <mxCell id="ecGzhi-yVDiqqjICK5mq-16" value="&lt;b&gt;Manage Subscription Plans&amp;nbsp;&lt;/b&gt;" style="rounded=1;whiteSpace=wrap;html=1;arcSize=40;fillColor=#cce5ff;strokeColor=#36393d;" parent="1" vertex="1">
          <mxGeometry x="807" y="417" width="120" height="40" as="geometry" />
        </mxCell>
        <mxCell id="ecGzhi-yVDiqqjICK5mq-20" value="&lt;b&gt;Review Feedbacks &#39; issues resolving&amp;nbsp;&lt;/b&gt;" style="rounded=1;whiteSpace=wrap;html=1;arcSize=40;fillColor=#cce5ff;strokeColor=#36393d;" parent="1" vertex="1">
          <mxGeometry x="985" y="422" width="120" height="40" as="geometry" />
        </mxCell>
        <mxCell id="l-sn4YQcxQSM0G9tXCvt-16" value="" style="edgeStyle=orthogonalEdgeStyle;rounded=0;orthogonalLoop=1;jettySize=auto;html=1;" edge="1" parent="1" source="ecGzhi-yVDiqqjICK5mq-25" target="ecGzhi-yVDiqqjICK5mq-30">
          <mxGeometry relative="1" as="geometry" />
        </mxCell>
        <mxCell id="ecGzhi-yVDiqqjICK5mq-25" value="" style="shape=line;html=1;strokeWidth=6;strokeColor=#000000;fillColor=#000000;" parent="1" vertex="1">
          <mxGeometry x="710.5" y="528" width="313" height="10" as="geometry" />
        </mxCell>
        <mxCell id="l-sn4YQcxQSM0G9tXCvt-17" value="" style="edgeStyle=orthogonalEdgeStyle;rounded=0;orthogonalLoop=1;jettySize=auto;html=1;" edge="1" parent="1" source="ecGzhi-yVDiqqjICK5mq-30" target="ecGzhi-yVDiqqjICK5mq-32">
          <mxGeometry relative="1" as="geometry" />
        </mxCell>
        <mxCell id="ecGzhi-yVDiqqjICK5mq-30" value="&lt;b&gt;Confirm&lt;/b&gt;&amp;nbsp;" style="rounded=1;whiteSpace=wrap;html=1;arcSize=40;fillColor=#cce5ff;strokeColor=#36393d;" parent="1" vertex="1">
          <mxGeometry x="807" y="588" width="120" height="40" as="geometry" />
        </mxCell>
        <mxCell id="l-sn4YQcxQSM0G9tXCvt-18" value="" style="edgeStyle=orthogonalEdgeStyle;rounded=0;orthogonalLoop=1;jettySize=auto;html=1;" edge="1" parent="1" source="ecGzhi-yVDiqqjICK5mq-32" target="ecGzhi-yVDiqqjICK5mq-34">
          <mxGeometry relative="1" as="geometry" />
        </mxCell>
        <mxCell id="ecGzhi-yVDiqqjICK5mq-32" value="&lt;b&gt;Alert User&lt;/b&gt;" style="rounded=1;whiteSpace=wrap;html=1;arcSize=40;fillColor=#cce5ff;strokeColor=#36393d;" parent="1" vertex="1">
          <mxGeometry x="807" y="676" width="120" height="40" as="geometry" />
        </mxCell>
        <mxCell id="ecGzhi-yVDiqqjICK5mq-34" value="" style="ellipse;html=1;shape=endState;fillColor=#000000;strokeColor=#ff0000;" parent="1" vertex="1">
          <mxGeometry x="847" y="767" width="40" height="40" as="geometry" />
        </mxCell>
        <mxCell id="l-sn4YQcxQSM0G9tXCvt-10" style="edgeStyle=orthogonalEdgeStyle;rounded=0;orthogonalLoop=1;jettySize=auto;html=1;entryX=0.438;entryY=-0.072;entryDx=0;entryDy=0;entryPerimeter=0;" edge="1" parent="1" source="ecGzhi-yVDiqqjICK5mq-11" target="ecGzhi-yVDiqqjICK5mq-16">
          <mxGeometry relative="1" as="geometry" />
        </mxCell>
        <mxCell id="l-sn4YQcxQSM0G9tXCvt-14" style="edgeStyle=orthogonalEdgeStyle;rounded=0;orthogonalLoop=1;jettySize=auto;html=1;entryX=0.026;entryY=0.268;entryDx=0;entryDy=0;entryPerimeter=0;" edge="1" parent="1" source="ecGzhi-yVDiqqjICK5mq-13" target="ecGzhi-yVDiqqjICK5mq-25">
          <mxGeometry relative="1" as="geometry" />
        </mxCell>
        <mxCell id="l-sn4YQcxQSM0G9tXCvt-15" style="edgeStyle=orthogonalEdgeStyle;rounded=0;orthogonalLoop=1;jettySize=auto;html=1;entryX=0.98;entryY=0.196;entryDx=0;entryDy=0;entryPerimeter=0;" edge="1" parent="1" source="ecGzhi-yVDiqqjICK5mq-20" target="ecGzhi-yVDiqqjICK5mq-25">
          <mxGeometry relative="1" as="geometry" />
        </mxCell>
      </root>
    </mxGraphModel>
  </diagram>
</mxfile>
